<mxGraphModel background="#FFFFFF" grid="1" guides="1" style="default-style2"><root><mxCell id="0"/><mxCell id="7h4DgkoKuQko" parent="0" value="Layer 0"/><mxCell id="2" parent="7h4DgkoKuQko" style="shape=rect;shadow=0;strokeWidth=0;strokeColor=none;fillColor=#e2e2e2;gradientColor=#FFFFFF;gradientDirection=north;opacity=50.0;gliffyId=119;" vertex="1"><mxGeometry as="geometry" height="30.0" width="690.0" x="197.0" y="167.1976776123047"/></mxCell><mxCell id="3" parent="7h4DgkoKuQko" style="shape=rect;shadow=0;strokeWidth=0;strokeColor=none;fillColor=#e2e2e2;gradientColor=#FFFFFF;gradientDirection=north;opacity=50.0;gliffyId=120;" vertex="1"><mxGeometry as="geometry" height="30.0" width="690.0" x="197.0" y="226.0988311767578"/></mxCell><mxCell id="4" parent="7h4DgkoKuQko" style="shape=rect;shadow=0;strokeWidth=0;strokeColor=none;fillColor=#e2e2e2;gradientColor=#FFFFFF;gradientDirection=north;opacity=50.0;gliffyId=121;" vertex="1"><mxGeometry as="geometry" height="30.0" width="690.0" x="197.0" y="307.2965087890625"/></mxCell><mxCell id="5" parent="7h4DgkoKuQko" style="shape=rect;shadow=0;strokeWidth=1;fillColor=#ffffff;strokeColor=#666666;opacity=42.0;dashed=1;fixDash=1;dashPattern=8.0 8.0;gliffyId=76;" vertex="1"><mxGeometry as="geometry" height="136.0" width="260.0" x="210.0" y="143.0"/></mxCell><mxCell id="6" parent="7h4DgkoKuQko" style="shape=document;size=0.2;shadow=0;strokeWidth=2;fillColor=#FFFFFF;strokeColor=#333333;opacity=100.0;html=1;nl2Br=0;verticalAlign=middle;align=center;spacingLeft=8.0;spacingRight=6;whiteSpace=wrap;gliffyId=33;" value="&lt;div style='width: 93.0px;height:auto;word-break: break-word;line-height:1em;'&gt;&lt;div align=&quot;center&quot;&gt;&lt;span style=&quot;font-family:Arial;font-size:12px;text-decoration:none; line-height: 0;&quot;&gt;&lt;span style=&quot;text-decoration: none; line-height: 14px;&quot;&gt;Architecture Decision&lt;/span&gt;&lt;/span&gt;&lt;/div&gt;&lt;/div&gt;" vertex="1"><mxGeometry as="geometry" height="75.69767761230469" width="100.0" x="12.0" y="177.5988311767578"/></mxCell><mxCell id="7" parent="7h4DgkoKuQko" style="shape=rect;shadow=0;strokeWidth=2;fillColor=#FFFFFF;strokeColor=#333333;opacity=100.0;html=1;nl2Br=0;verticalAlign=middle;align=center;spacingLeft=8.0;spacingRight=6;whiteSpace=wrap;gliffyId=0;" value="&lt;div style='width: 93.0px;height:auto;word-break: break-word;line-height:1em;'&gt;&lt;div align=&quot;center&quot;&gt;&lt;span style=&quot;font-family:Arial;font-size:12px;text-decoration:none;font-weight:bold; line-height: 0;&quot;&gt;&lt;span style=&quot;text-decoration: none; line-height: 14px;&quot;&gt;Architecture Decision&lt;/span&gt;&lt;/span&gt;&lt;/div&gt;&lt;div align=&quot;center&quot;&gt;&lt;span style=&quot;font-weight: bold; line-height: 14px;&quot;&gt;Register (ADR)&lt;/span&gt;&lt;/div&gt;&lt;/div&gt;" vertex="1"><mxGeometry as="geometry" height="75.69767761230469" width="100.0" x="18.0" y="313.4011535644531"/></mxCell><mxCell id="8" parent="7h4DgkoKuQko" style="shape=document;size=0.2;shadow=0;strokeWidth=2;fillColor=#e2e2e2;strokeColor=#333333;opacity=100.0;html=1;nl2Br=0;verticalAlign=middle;align=center;spacingLeft=8.0;spacingRight=6;whiteSpace=wrap;gliffyId=2;" value="&lt;div style='width: 93.0px;height:auto;word-break: break-word;line-height:1em;'&gt;&lt;div align=&quot;center&quot;&gt;&lt;span style=&quot;font-family:Arial;font-size:12px;text-decoration:none;font-weight:bold; line-height: 0;&quot;&gt;&lt;span style=&quot;text-decoration: none; line-height: 14px;&quot;&gt;Architecture Decision&lt;/span&gt;&lt;/span&gt;&lt;/div&gt;&lt;/div&gt;" vertex="1"><mxGeometry as="geometry" height="75.69767761230469" width="100.0" x="18.0" y="172.0988311767578"/></mxCell><mxCell edge="1" id="9" parent="7h4DgkoKuQko" source="8" style="shape=filledEdge;strokeWidth=1;strokeColor=#000000;fillColor=none;startArrow=none;startFill=0;startSize=6;endArrow=open;endFill=0;endSize=6;rounded=1;html=1;nl2Br=0;gliffyId=5;edgeStyle=orthogonalEdgeStyle;" target="7"><mxGeometry as="geometry" height="73.67906951904297" relative="1" width="7.0"><Array as="points"><mxPoint x="68.0" y="247.7965087890625"/><mxPoint x="68.0" y="269.66473388671875"/><mxPoint x="68.0" y="291.5329284667969"/><mxPoint x="68.0" y="313.4011535644531"/></Array></mxGeometry></mxCell><mxCell id="10" parent="9" style="text;html=1;nl2Br=0;points=[];labelBackgroundColor=#FFFFFF;html=1;nl2Br=0;verticalAlign=middle;align=center;spacingLeft=0.0;spacingRight=0;gliffyId=30;" value="&lt;div style='width: 71.0469px;height:auto;word-break: break-word;line-height:1em;'&gt;&lt;div align=&quot;center&quot;&gt;&lt;span style=&quot;font-family: Arial; font-size: 12px; line-height: 14px;&quot;&gt;recorded in&lt;/span&gt;&lt;/div&gt;&lt;/div&gt;" vertex="1"><mxGeometry as="geometry" relative="1"><mxPoint as="offset"/></mxGeometry></mxCell><mxCell id="11" parent="7h4DgkoKuQko" style="shape=rect;shadow=0;strokeWidth=2;fillColor=#FFFFFF;strokeColor=#333333;opacity=100.0;html=1;nl2Br=0;verticalAlign=middle;align=center;spacingLeft=8.0;spacingRight=6;whiteSpace=wrap;gliffyId=47;" value="&lt;div style='width: 93.0px;height:auto;word-break: break-word;line-height:1em;'&gt;&lt;div align=&quot;center&quot;&gt;&lt;span style=&quot;font-family:Arial;font-size:12px;text-decoration:none; line-height: 0;&quot;&gt;&lt;span style=&quot;text-decoration: none; line-height: 14px;&quot;&gt;Context&lt;/span&gt;&lt;/span&gt;&lt;/div&gt;&lt;/div&gt;" vertex="1"><mxGeometry as="geometry" height="40.0" width="100.0" x="236.0" y="163.0"/></mxCell><mxCell id="12" parent="7h4DgkoKuQko" style="shape=rect;shadow=0;strokeWidth=2;fillColor=#FFFFFF;strokeColor=#333333;opacity=100.0;html=1;nl2Br=0;verticalAlign=middle;align=center;spacingLeft=8.0;spacingRight=6;whiteSpace=wrap;gliffyId=51;" value="&lt;div style='width: 93.0px;height:auto;word-break: break-word;line-height:1em;'&gt;&lt;div align=&quot;center&quot;&gt;&lt;span style=&quot;font-family:Arial;font-size:12px;text-decoration:none; line-height: 0;&quot;&gt;&lt;span style=&quot;text-decoration: none; line-height: 14px;&quot;&gt;Container&lt;/span&gt;&lt;/span&gt;&lt;/div&gt;&lt;/div&gt;" vertex="1"><mxGeometry as="geometry" height="40.0" width="100.0" x="290.0" y="221.0988311767578"/></mxCell><mxCell id="13" parent="7h4DgkoKuQko" style="shape=rect;shadow=0;strokeWidth=2;fillColor=#FFFFFF;strokeColor=#333333;opacity=100.0;html=1;nl2Br=0;verticalAlign=middle;align=center;spacingLeft=8.0;spacingRight=6;whiteSpace=wrap;gliffyId=57;" value="&lt;div style='width: 93.0px;height:auto;word-break: break-word;line-height:1em;'&gt;&lt;div align=&quot;center&quot;&gt;&lt;span style=&quot;font-family: Arial; font-size: 12px; text-decoration: none; line-height: 14px;&quot;&gt;Component&lt;/span&gt;&lt;/div&gt;&lt;/div&gt;" vertex="1"><mxGeometry as="geometry" height="40.0" width="100.0" x="347.0" y="309.2965087890625"/></mxCell><mxCell edge="1" id="14" parent="7h4DgkoKuQko" source="8" style="shape=filledEdge;strokeWidth=1;strokeColor=#000000;fillColor=none;startArrow=none;startFill=0;startSize=6;endArrow=open;endFill=0;endSize=6;rounded=1;html=1;nl2Br=0;gliffyId=78;edgeStyle=orthogonalEdgeStyle;" target="5"><mxGeometry as="geometry" height="1.0" relative="1" width="125.0"><Array as="points"><mxPoint x="118.0" y="209.9476776123047"/><mxPoint x="148.66867065429688" y="209.9476776123047"/><mxPoint x="179.33734130859375" y="209.9476776123047"/><mxPoint x="210.00601196289062" y="209.9476776123047"/></Array></mxGeometry></mxCell><mxCell id="15" parent="14" style="text;html=1;nl2Br=0;points=[];labelBackgroundColor=#FFFFFF;html=1;nl2Br=0;verticalAlign=middle;align=center;spacingLeft=0.0;spacingRight=0;gliffyId=79;" value="&lt;div style='width: 63.0312px;height:auto;word-break: break-word;line-height:1em;'&gt;&lt;div align=&quot;center&quot;&gt;&lt;span style=&quot;font-family: Arial; font-size: 12px; line-height: 14px;&quot;&gt;described&lt;/span&gt;&lt;/div&gt;&lt;div align=&quot;center&quot;&gt;&lt;span style=&quot;font-family: Arial; font-size: 12px; line-height: 14px;&quot;&gt;as&lt;/span&gt;&lt;/div&gt;&lt;/div&gt;" vertex="1"><mxGeometry as="geometry" relative="1"><mxPoint as="offset"/></mxGeometry></mxCell><mxCell edge="1" id="16" parent="7h4DgkoKuQko" source="37" style="shape=filledEdge;strokeWidth=1;strokeColor=#000000;fillColor=none;startArrow=none;startFill=0;startSize=6;endArrow=open;endFill=0;endSize=6;rounded=1;html=1;nl2Br=0;gliffyId=84;edgeStyle=orthogonalEdgeStyle;" target="5"><mxGeometry as="geometry" height="92.0" relative="1" width="8.0"><Array as="points"><mxPoint x="543.0" y="70.0"/><mxPoint x="543.0" y="106.5"/><mxPoint x="340.0" y="106.5"/><mxPoint x="340.0" y="143.0"/></Array></mxGeometry></mxCell><mxCell id="17" parent="16" style="text;html=1;nl2Br=0;points=[];labelBackgroundColor=#FFFFFF;html=1;nl2Br=0;verticalAlign=middle;align=center;spacingLeft=0.0;spacingRight=0;gliffyId=85;" value="&lt;div style='width: 82.375px;height:auto;word-break: break-word;line-height:1em;'&gt;&lt;div align=&quot;center&quot;&gt;&lt;span style=&quot;font-family: Arial; font-size: 12px; line-height: 14px;&quot;&gt;links together&lt;/span&gt;&lt;/div&gt;&lt;/div&gt;" vertex="1"><mxGeometry as="geometry" relative="1"><mxPoint as="offset"/></mxGeometry></mxCell><mxCell id="18" parent="7h4DgkoKuQko" style="text;html=1;nl2Br=0;html=1;nl2Br=0;verticalAlign=middle;align=right;spacingLeft=0.0;spacingRight=0;whiteSpace=wrap;gliffyId=90;" value="&lt;div style='width: 97.0px;height:auto;word-break: break-word;line-height:1em;'&gt;&lt;div align=&quot;right&quot;&gt;&lt;span style=&quot;font-family:Arial;font-size:12px; line-height: 0;&quot;&gt;&lt;span style=&quot;line-height: 14px;&quot;&gt;Controls mapped to how-to-deliver description&lt;/span&gt;&lt;/span&gt;&lt;/div&gt;&lt;/div&gt;" vertex="1"><mxGeometry as="geometry" height="42.0" width="100.0" x="386.0" y="19.0"/></mxCell><mxCell edge="1" id="19" parent="7h4DgkoKuQko" source="11" style="shape=filledEdge;strokeWidth=1;strokeColor=#000000;fillColor=none;startArrow=none;startFill=0;startSize=6;endArrow=open;endFill=0;endSize=6;rounded=1;html=1;nl2Br=0;gliffyId=91;edgeStyle=orthogonalEdgeStyle;" target="23"><mxGeometry as="geometry" height="57.0" relative="1" width="93.0"><Array as="points"><mxPoint x="265.289306640625" y="203.0"/><mxPoint x="265.289306640625" y="233.5988311767578"/><mxPoint x="297.0" y="233.5988311767578"/></Array></mxGeometry></mxCell><mxCell id="20" parent="19" style="text;html=1;nl2Br=0;points=[];labelBackgroundColor=#FFFFFF;html=1;nl2Br=0;verticalAlign=middle;align=center;spacingLeft=0.0;spacingRight=0;gliffyId=110;" value="&lt;div style='width: 44.0312px;height:auto;word-break: break-word;line-height:1em;'&gt;&lt;div align=&quot;center&quot;&gt;&lt;span style=&quot;font-family: Arial; font-size: 9px; line-height: 10px;&quot;&gt;solution &lt;/span&gt;&lt;/div&gt;&lt;div align=&quot;center&quot;&gt;&lt;span style=&quot;font-family: Arial; font-size: 9px; line-height: 10px;&quot;&gt;grouped&lt;/span&gt;&lt;/div&gt;&lt;div align=&quot;center&quot;&gt;&lt;span style=&quot;font-family: Arial; font-size: 9px; line-height: 10px;&quot;&gt;using&amp;nbsp;&lt;/span&gt;&lt;/div&gt;&lt;/div&gt;" vertex="1"><mxGeometry as="geometry" relative="1" x="-0.18007258985083385"><mxPoint as="offset" y="20.0"/></mxGeometry></mxCell><mxCell edge="1" id="21" parent="7h4DgkoKuQko" source="23" style="shape=filledEdge;strokeWidth=1;strokeColor=#000000;fillColor=none;startArrow=none;startFill=0;startSize=6;endArrow=open;endFill=0;endSize=6;rounded=1;html=1;nl2Br=0;gliffyId=92;edgeStyle=orthogonalEdgeStyle;" target="24"><mxGeometry as="geometry" height="73.0" relative="1" width="45.0"><Array as="points"><mxPoint x="326.289306640625" y="253.5988311767578"/><mxPoint x="326.289306640625" y="321.7965087890625"/><mxPoint x="354.0" y="321.7965087890625"/></Array></mxGeometry></mxCell><mxCell id="22" parent="21" style="text;html=1;nl2Br=0;points=[];labelBackgroundColor=#FFFFFF;html=1;nl2Br=0;verticalAlign=middle;align=center;spacingLeft=0.0;spacingRight=0;gliffyId=109;" value="&lt;div style='width: 56.0312px;height:auto;word-break: break-word;line-height:1em;'&gt;&lt;div align=&quot;center&quot;&gt;&lt;span style=&quot;font-family: Arial; font-size: 9px; line-height: 10px;&quot;&gt;made up of&lt;/span&gt;&lt;/div&gt;&lt;/div&gt;" vertex="1"><mxGeometry as="geometry" relative="1" x="-0.25146178014709597"><mxPoint as="offset" y="20.0"/></mxGeometry></mxCell><mxCell id="23" parent="7h4DgkoKuQko" style="shape=rect;shadow=0;strokeWidth=2;fillColor=#FFFFFF;strokeColor=#333333;opacity=100.0;html=1;nl2Br=0;verticalAlign=middle;align=center;spacingLeft=8.0;spacingRight=6;whiteSpace=wrap;gliffyId=94;" value="&lt;div style='width: 93.0px;height:auto;word-break: break-word;line-height:1em;'&gt;&lt;div align=&quot;center&quot;&gt;&lt;span style=&quot;font-family:Arial;font-size:12px;text-decoration:none; line-height: 0;&quot;&gt;&lt;span style=&quot;text-decoration: none; line-height: 14px;&quot;&gt;Container&lt;/span&gt;&lt;/span&gt;&lt;/div&gt;&lt;/div&gt;" vertex="1"><mxGeometry as="geometry" height="40.0" width="100.0" x="297.0" y="213.5988311767578"/></mxCell><mxCell id="24" parent="7h4DgkoKuQko" style="shape=rect;shadow=0;strokeWidth=2;fillColor=#FFFFFF;strokeColor=#333333;opacity=100.0;html=1;nl2Br=0;verticalAlign=middle;align=center;spacingLeft=8.0;spacingRight=6;whiteSpace=wrap;gliffyId=96;" value="&lt;div style='width: 93.0px;height:auto;word-break: break-word;line-height:1em;'&gt;&lt;div align=&quot;center&quot;&gt;&lt;span style=&quot;font-family: Arial; font-size: 12px; text-decoration: none; line-height: 14px;&quot;&gt;Component&lt;/span&gt;&lt;/div&gt;&lt;/div&gt;" vertex="1"><mxGeometry as="geometry" height="40.0" width="100.0" x="354.0" y="301.7965087890625"/></mxCell><mxCell edge="1" id="25" parent="7h4DgkoKuQko" source="37" style="shape=filledEdge;strokeWidth=1;strokeColor=#000000;fillColor=none;startArrow=none;startFill=0;startSize=6;endArrow=open;endFill=0;endSize=6;rounded=1;html=1;nl2Br=0;gliffyId=104;edgeStyle=orthogonalEdgeStyle;" target="41"><mxGeometry as="geometry" height="286.0" relative="1" width="44.0"><Array as="points"><mxPoint x="563.710693359375" y="70.0"/><mxPoint x="563.710693359375" y="171.007568359375"/><mxPoint x="563.710693359375" y="272.01513671875"/><mxPoint x="563.710693359375" y="373.0227355957031"/></Array></mxGeometry></mxCell><mxCell id="26" parent="25" style="text;html=1;nl2Br=0;points=[];labelBackgroundColor=#FFFFFF;html=1;nl2Br=0;verticalAlign=middle;align=center;spacingLeft=0.0;spacingRight=0;gliffyId=112;" value="&lt;div style='width: 48.3594px;height:auto;word-break: break-word;line-height:1em;'&gt;&lt;div align=&quot;center&quot;&gt;&lt;span style=&quot;font-family: Arial; font-size: 12px; line-height: 14px;&quot;&gt;links to&lt;/span&gt;&lt;/div&gt;&lt;/div&gt;" vertex="1"><mxGeometry as="geometry" relative="1"><mxPoint as="offset"/></mxGeometry></mxCell><mxCell id="27" parent="7h4DgkoKuQko" style="text;html=1;nl2Br=0;html=1;nl2Br=0;verticalAlign=middle;align=right;spacingLeft=0.0;spacingRight=0;whiteSpace=wrap;gliffyId=105;" value="&lt;div style='width: 234.0px;height:auto;word-break: break-word;line-height:1em;'&gt;&lt;div align=&quot;right&quot;&gt;&lt;span style=&quot;font-family:Arial;font-size:12px;color:#999999; line-height: 0;&quot;&gt;&lt;span style=&quot;line-height: 14px;&quot;&gt;E.g. Home Lending Origination&lt;/span&gt;&lt;/span&gt;&lt;/div&gt;&lt;/div&gt;" vertex="1"><mxGeometry as="geometry" height="14.0" width="237.0" x="640.0" y="176.5"/></mxCell><mxCell id="28" parent="7h4DgkoKuQko" style="text;html=1;nl2Br=0;html=1;nl2Br=0;verticalAlign=middle;align=right;spacingLeft=0.0;spacingRight=0;whiteSpace=wrap;gliffyId=106;" value="&lt;div style='width: 234.0px;height:auto;word-break: break-word;line-height:1em;'&gt;&lt;div align=&quot;right&quot;&gt;&lt;span style=&quot;font-family:Arial;font-size:12px;color:#999999; line-height: 0;&quot;&gt;&lt;span style=&quot;line-height: 14px;&quot;&gt;E.g. Collateral Management&lt;/span&gt;&lt;/span&gt;&lt;/div&gt;&lt;/div&gt;" vertex="1"><mxGeometry as="geometry" height="14.0" width="237.0" x="640.0" y="234.0988311767578"/></mxCell><mxCell id="29" parent="7h4DgkoKuQko" style="text;html=1;nl2Br=0;html=1;nl2Br=0;verticalAlign=middle;align=right;spacingLeft=0.0;spacingRight=0;whiteSpace=wrap;gliffyId=107;" value="&lt;div style='width: 234.0px;height:auto;word-break: break-word;line-height:1em;'&gt;&lt;div align=&quot;right&quot;&gt;&lt;span style=&quot;font-family:Arial;font-size:12px;color:#999999; line-height: 0;&quot;&gt;&lt;span style=&quot;line-height: 14px;&quot;&gt;E.g. Save and retrieve collateral details&amp;nbsp;&lt;/span&gt;&lt;/span&gt;&lt;/div&gt;&lt;/div&gt;" vertex="1"><mxGeometry as="geometry" height="14.0" width="237.0" x="640.0" y="315.2965087890625"/></mxCell><mxCell id="30" parent="7h4DgkoKuQko" style="shape=display;size=0.25;shadow=0;strokeWidth=0;strokeColor=none;fillColor=#ff0000;opacity=100.0;rotation=30.0;gliffyId=133;" vertex="1"><mxGeometry as="geometry" height="16.0" width="31.0" x="611.9234008789062" y="432.25"/></mxCell><mxCell id="31" parent="7h4DgkoKuQko" style="text;html=1;nl2Br=0;html=1;nl2Br=0;verticalAlign=middle;align=left;spacingLeft=0.0;spacingRight=0;whiteSpace=wrap;gliffyId=135;" value="&lt;div style='width: 187.0px;height:auto;word-break: break-word;line-height:1em;'&gt;&lt;div align=&quot;left&quot;&gt;&lt;span style=&quot;font-family:Arial;font-size:12px;color:#ff0000; line-height: 0;&quot;&gt;&lt;span style=&quot;line-height: 14px;&quot;&gt;- can group multiple components&amp;nbsp;&lt;/span&gt;&lt;/span&gt;&lt;/div&gt;&lt;div align=&quot;left&quot;&gt;&lt;span style=&quot;font-family:Arial;font-size:12px;color:#ff0000; line-height: 0;&quot;&gt;&lt;span style=&quot;line-height: 14px;&quot;&gt;- can be described using SYSL (?)&lt;/span&gt;&lt;/span&gt;&lt;/div&gt;&lt;/div&gt;" vertex="1"><mxGeometry as="geometry" height="28.0" width="190.0" x="593.0" y="464.0988464355469"/></mxCell><mxCell id="32" parent="7h4DgkoKuQko" style="text;html=1;nl2Br=0;html=1;nl2Br=0;verticalAlign=middle;align=left;spacingLeft=0.0;spacingRight=0;whiteSpace=wrap;gliffyId=138;" value="&lt;div style='width: 167.0px;height:auto;word-break: break-word;line-height:1em;'&gt;&lt;div align=&quot;left&quot;&gt;&lt;span style=&quot;font-family:Arial;font-size:12px; line-height: 0;&quot;&gt;&lt;span style=&quot;line-height: 14px;&quot;&gt;Control 1: link 1&lt;/span&gt;&lt;/span&gt;&lt;/div&gt;&lt;div align=&quot;left&quot;&gt;&lt;span style=&quot;font-family:Arial;font-size:12px; line-height: 0;&quot;&gt;&lt;span style=&quot;line-height: 14px;&quot;&gt;Control 2: link1, link2&lt;/span&gt;&lt;/span&gt;&lt;/div&gt;&lt;div align=&quot;left&quot;&gt;&lt;span style=&quot;font-family:Arial;font-size:12px; line-height: 0;&quot;&gt;&lt;span style=&quot;line-height: 14px;&quot;&gt;Control 3: link 1, link2, link3&lt;/span&gt;&lt;/span&gt;&lt;/div&gt;&lt;/div&gt;" vertex="1"><mxGeometry as="geometry" height="42.0" width="170.0" x="600.0" y="19.0"/></mxCell><mxCell edge="1" id="33" parent="7h4DgkoKuQko" source="37" style="shape=filledEdge;strokeWidth=1;strokeColor=#000000;fillColor=none;startArrow=none;startFill=0;startSize=6;endArrow=open;endFill=0;endSize=6;rounded=1;html=1;nl2Br=0;gliffyId=139;edgeStyle=orthogonalEdgeStyle;" target="8"><mxGeometry as="geometry" height="174.0" relative="1" width="453.0"><Array as="points"><mxPoint x="522.289306640625" y="70.0"/><mxPoint x="522.289306640625" y="90.54942321777344"/><mxPoint x="68.0" y="90.54942321777344"/><mxPoint x="68.0" y="172.09884643554688"/></Array></mxGeometry></mxCell><mxCell id="34" parent="33" style="text;html=1;nl2Br=0;points=[];labelBackgroundColor=#FFFFFF;html=1;nl2Br=0;verticalAlign=middle;align=center;spacingLeft=0.0;spacingRight=0;gliffyId=140;" value="&lt;div style='width: 55.0156px;height:auto;word-break: break-word;line-height:1em;'&gt;&lt;div align=&quot;center&quot;&gt;&lt;span style=&quot;font-family: Arial; font-size: 12px; line-height: 14px;&quot;&gt;refers to&lt;/span&gt;&lt;/div&gt;&lt;/div&gt;" vertex="1"><mxGeometry as="geometry" relative="1"><mxPoint as="offset"/></mxGeometry></mxCell><mxCell id="35" parent="7h4DgkoKuQko" style="shape=document;size=0.2;shadow=0;strokeWidth=2;fillColor=#FFFFFF;strokeColor=#333333;opacity=100.0;html=1;nl2Br=0;verticalAlign=middle;align=center;spacingLeft=8.0;spacingRight=6;whiteSpace=wrap;gliffyId=146;" value="&lt;div style='width: 93.0px;height:auto;word-break: break-word;line-height:1em;'&gt;&lt;div align=&quot;center&quot;&gt;&lt;span style=&quot;font-family:Arial;font-size:12px;text-decoration:none;font-weight:bold; line-height: 0;&quot;&gt;&lt;span style=&quot;text-decoration: none; line-height: 14px;&quot;&gt;Architecture / Platform Pattern&lt;/span&gt;&lt;/span&gt;&lt;/div&gt;&lt;/div&gt;" vertex="1"><mxGeometry as="geometry" height="60.0" width="100.0" x="730.0" y="376.5"/></mxCell><mxCell id="36" parent="7h4DgkoKuQko" style="shape=document;size=0.2;shadow=0;strokeWidth=2;fillColor=#e2e2e2;strokeColor=#333333;opacity=100.0;html=1;nl2Br=0;verticalAlign=middle;align=center;spacingLeft=8.0;spacingRight=6;whiteSpace=wrap;gliffyId=148;" value="&lt;div style='width: 93.0px;height:auto;word-break: break-word;line-height:1em;'&gt;&lt;div align=&quot;center&quot;&gt;&lt;span style=&quot;font-family:Arial;font-size:12px;text-decoration:none;font-weight:bold; line-height: 0;&quot;&gt;&lt;span style=&quot;text-decoration: none; line-height: 14px;&quot;&gt;Architecture / Platform Pattern&lt;/span&gt;&lt;/span&gt;&lt;/div&gt;&lt;/div&gt;" vertex="1"><mxGeometry as="geometry" height="60.0" width="100.0" x="736.0" y="369.5"/></mxCell><mxCell id="37" parent="7h4DgkoKuQko" style="shape=document;size=0.2;shadow=0;strokeWidth=2;fillColor=#e2e2e2;strokeColor=#333333;opacity=100.0;html=1;nl2Br=0;verticalAlign=middle;align=center;spacingLeft=8.0;spacingRight=6;whiteSpace=wrap;gliffyId=6;" value="&lt;div style='width: 93.0px;height:auto;word-break: break-word;line-height:1em;'&gt;&lt;div align=&quot;center&quot;&gt;&lt;span style=&quot;font-family:Arial;font-size:12px;text-decoration:none;font-weight:bold; line-height: 0;&quot;&gt;&lt;span style=&quot;text-decoration: none; line-height: 14px;&quot;&gt;Solution Intent&lt;/span&gt;&lt;/span&gt;&lt;/div&gt;&lt;/div&gt;" vertex="1"><mxGeometry as="geometry" height="60.0" width="100.0" x="493.0" y="10.0"/></mxCell><mxCell edge="1" id="38" parent="7h4DgkoKuQko" source="41" style="shape=filledEdge;strokeWidth=1;strokeColor=#000000;fillColor=none;startArrow=none;startFill=0;startSize=6;endArrow=open;endFill=0;endSize=6;rounded=1;html=1;nl2Br=0;gliffyId=152;edgeStyle=orthogonalEdgeStyle;" target="36"><mxGeometry as="geometry" height="1.0" relative="1" width="123.0"><Array as="points"><mxPoint x="609.951416015625" y="399.5"/><mxPoint x="651.9675903320312" y="399.5"/><mxPoint x="693.9838256835938" y="399.5"/><mxPoint x="736.0" y="399.5"/></Array></mxGeometry></mxCell><mxCell id="39" parent="38" style="text;html=1;nl2Br=0;points=[];labelBackgroundColor=#FFFFFF;html=1;nl2Br=0;verticalAlign=middle;align=center;spacingLeft=0.0;spacingRight=0;gliffyId=153;" value="&lt;div style='width: 53.5312px;height:auto;word-break: break-word;line-height:1em;'&gt;&lt;div align=&quot;center&quot;&gt;&lt;span style=&quot;font-family: Arial; font-size: 9px; line-height: 10px;&quot;&gt;references&lt;/span&gt;&lt;/div&gt;&lt;/div&gt;" vertex="1"><mxGeometry as="geometry" relative="1"><mxPoint as="offset"/></mxGeometry></mxCell><mxCell id="40" parent="7h4DgkoKuQko" style="shape=document;size=0.2;shadow=0;strokeWidth=2;fillColor=#FFFFFF;strokeColor=#333333;opacity=100.0;html=1;nl2Br=0;verticalAlign=middle;align=center;spacingLeft=8.0;spacingRight=6;whiteSpace=wrap;gliffyId=155;" value="&lt;div style='width: 93.0px;height:auto;word-break: break-word;line-height:1em;'&gt;&lt;div align=&quot;center&quot;&gt;&lt;span style=&quot;font-family:Arial;font-size:12px;text-decoration:none;font-weight:bold; line-height: 0;&quot;&gt;&lt;span style=&quot;text-decoration: none; line-height: 14px;&quot;&gt;ISD / detailed design&lt;/span&gt;&lt;/span&gt;&lt;/div&gt;&lt;/div&gt;" vertex="1"><mxGeometry as="geometry" height="60.0" width="100.0" x="504.0" y="380.0"/></mxCell><mxCell id="41" parent="7h4DgkoKuQko" style="shape=document;size=0.2;shadow=0;strokeWidth=2;fillColor=#e2e2e2;strokeColor=#333333;opacity=100.0;html=1;nl2Br=0;verticalAlign=middle;align=center;spacingLeft=8.0;spacingRight=6;whiteSpace=wrap;gliffyId=62;" value="&lt;div style='width: 93.0px;height:auto;word-break: break-word;line-height:1em;'&gt;&lt;div align=&quot;center&quot;&gt;&lt;span style=&quot;font-family:Arial;font-size:12px;text-decoration:none;font-weight:bold; line-height: 0;&quot;&gt;&lt;span style=&quot;text-decoration: none; line-height: 14px;&quot;&gt;ISD / solution overview /&amp;nbsp;&lt;/span&gt;&lt;/span&gt;&lt;/div&gt;&lt;div align=&quot;center&quot;&gt;&lt;span style=&quot;font-weight: bold; line-height: 14px;&quot;&gt;detailed design&lt;/span&gt;&lt;/div&gt;&lt;/div&gt;" vertex="1"><mxGeometry as="geometry" height="60.0" width="100.0" x="510.0" y="373.0"/></mxCell><mxCell id="42" parent="7h4DgkoKuQko" style="text;html=1;nl2Br=0;html=1;nl2Br=0;verticalAlign=middle;align=center;spacingLeft=0.0;spacingRight=0;whiteSpace=wrap;gliffyId=158;" value="&lt;div style='width: 21.0px;height:auto;word-break: break-word;line-height:1em;'&gt;&lt;div align=&quot;center&quot;&gt;&lt;span style=&quot;font-family:Arial;font-size:12px; line-height: 0;&quot;&gt;&lt;span style=&quot;line-height: 14px;&quot;&gt;1&lt;/span&gt;&lt;/span&gt;&lt;/div&gt;&lt;/div&gt;" vertex="1"><mxGeometry as="geometry" height="14.0" width="24.0" x="481.0" y="404.0"/></mxCell><mxCell id="43" parent="7h4DgkoKuQko" style="text;html=1;nl2Br=0;html=1;nl2Br=0;verticalAlign=middle;align=center;spacingLeft=0.0;spacingRight=0;whiteSpace=wrap;gliffyId=159;" value="&lt;div style='width: 21.0px;height:auto;word-break: break-word;line-height:1em;'&gt;&lt;div align=&quot;center&quot;&gt;&lt;span style=&quot;font-family: Arial; font-size: 12px; line-height: 14px;&quot;&gt;*&lt;/span&gt;&lt;/div&gt;&lt;/div&gt;" vertex="1"><mxGeometry as="geometry" height="14.0" width="24.0" x="560.0" y="349.2965087890625"/></mxCell><mxCell id="44" parent="7h4DgkoKuQko" style="text;html=1;nl2Br=0;html=1;nl2Br=0;verticalAlign=middle;align=center;spacingLeft=0.0;spacingRight=0;whiteSpace=wrap;gliffyId=161;" value="&lt;div style='width: 21.0px;height:auto;word-break: break-word;line-height:1em;'&gt;&lt;div align=&quot;center&quot;&gt;&lt;span style=&quot;font-family:Arial;font-size:12px; line-height: 0;&quot;&gt;&lt;span style=&quot;line-height: 14px;&quot;&gt;1&lt;/span&gt;&lt;/span&gt;&lt;/div&gt;&lt;/div&gt;" vertex="1"><mxGeometry as="geometry" height="14.0" width="24.0" x="515.0" y="80.0"/></mxCell><mxCell id="45" parent="7h4DgkoKuQko" style="text;html=1;nl2Br=0;html=1;nl2Br=0;verticalAlign=middle;align=center;spacingLeft=0.0;spacingRight=0;whiteSpace=wrap;gliffyId=162;" value="&lt;div style='width: 21.0px;height:auto;word-break: break-word;line-height:1em;'&gt;&lt;div align=&quot;center&quot;&gt;&lt;span style=&quot;font-family: Arial; font-size: 12px; line-height: 14px;&quot;&gt;*&lt;/span&gt;&lt;/div&gt;&lt;/div&gt;" vertex="1"><mxGeometry as="geometry" height="14.0" width="24.0" x="62.0" y="149.0"/></mxCell><mxCell id="46" parent="7h4DgkoKuQko" style="text;html=1;nl2Br=0;html=1;nl2Br=0;verticalAlign=middle;align=center;spacingLeft=0.0;spacingRight=0;whiteSpace=wrap;gliffyId=163;" value="&lt;div style='width: 21.0px;height:auto;word-break: break-word;line-height:1em;'&gt;&lt;div align=&quot;center&quot;&gt;&lt;span style=&quot;font-family:Arial;font-size:12px; line-height: 0;&quot;&gt;&lt;span style=&quot;line-height: 14px;&quot;&gt;1&lt;/span&gt;&lt;/span&gt;&lt;/div&gt;&lt;/div&gt;" vertex="1"><mxGeometry as="geometry" height="14.0" width="24.0" x="65.0" y="297.7965087890625"/></mxCell><mxCell id="47" parent="7h4DgkoKuQko" style="text;html=1;nl2Br=0;html=1;nl2Br=0;verticalAlign=middle;align=center;spacingLeft=0.0;spacingRight=0;whiteSpace=wrap;gliffyId=164;" value="&lt;div style='width: 21.0px;height:auto;word-break: break-word;line-height:1em;'&gt;&lt;div align=&quot;center&quot;&gt;&lt;span style=&quot;font-family: Arial; font-size: 12px; line-height: 14px;&quot;&gt;*&lt;/span&gt;&lt;/div&gt;&lt;/div&gt;" vertex="1"><mxGeometry as="geometry" height="14.0" width="24.0" x="62.0" y="249.0988311767578"/></mxCell><mxCell id="48" parent="7h4DgkoKuQko" style="text;html=1;nl2Br=0;html=1;nl2Br=0;verticalAlign=middle;align=center;spacingLeft=0.0;spacingRight=0;whiteSpace=wrap;gliffyId=167;" value="&lt;div style='width: 21.0px;height:auto;word-break: break-word;line-height:1em;'&gt;&lt;div align=&quot;center&quot;&gt;&lt;span style=&quot;font-family:Arial;font-size:12px; line-height: 0;&quot;&gt;&lt;span style=&quot;line-height: 14px;&quot;&gt;1&lt;/span&gt;&lt;/span&gt;&lt;/div&gt;&lt;/div&gt;" vertex="1"><mxGeometry as="geometry" height="14.0" width="24.0" x="612.0" y="386.0"/></mxCell><mxCell id="49" parent="7h4DgkoKuQko" style="text;html=1;nl2Br=0;html=1;nl2Br=0;verticalAlign=middle;align=center;spacingLeft=0.0;spacingRight=0;whiteSpace=wrap;gliffyId=168;" value="&lt;div style='width: 21.0px;height:auto;word-break: break-word;line-height:1em;'&gt;&lt;div align=&quot;center&quot;&gt;&lt;span style=&quot;font-family: Arial; font-size: 12px; line-height: 14px;&quot;&gt;*&lt;/span&gt;&lt;/div&gt;&lt;/div&gt;" vertex="1"><mxGeometry as="geometry" height="14.0" width="24.0" x="706.0" y="389.0"/></mxCell><mxCell edge="1" id="50" parent="7h4DgkoKuQko" source="24" style="shape=filledEdge;strokeWidth=1;strokeColor=#000000;fillColor=none;startArrow=none;startFill=0;startSize=6;endArrow=open;endFill=0;endSize=6;rounded=1;html=1;nl2Br=0;gliffyId=73;edgeStyle=orthogonalEdgeStyle;" target="41"><mxGeometry as="geometry" height="41.0" relative="1" width="4.0"><Array as="points"><mxPoint x="424.710693359375" y="341.7965087890625"/><mxPoint x="424.710693359375" y="403.0"/><mxPoint x="510.0" y="403.0"/></Array></mxGeometry></mxCell><mxCell id="51" parent="50" style="text;html=1;nl2Br=0;points=[];labelBackgroundColor=#FFFFFF;html=1;nl2Br=0;verticalAlign=middle;align=center;spacingLeft=0.0;spacingRight=0;gliffyId=81;" value="&lt;div style='width: 52.0469px;height:auto;word-break: break-word;line-height:1em;'&gt;&lt;div align=&quot;center&quot;&gt;&lt;span style=&quot;font-family: Arial; font-size: 9px; line-height: 10px;&quot;&gt;detailed in&lt;/span&gt;&lt;/div&gt;&lt;/div&gt;" vertex="1"><mxGeometry as="geometry" relative="1" x="-0.44559976655979894"><mxPoint as="offset"/></mxGeometry></mxCell><mxCell id="52" parent="7h4DgkoKuQko" style="text;html=1;nl2Br=0;html=1;nl2Br=0;verticalAlign=middle;align=center;spacingLeft=0.0;spacingRight=0;whiteSpace=wrap;gliffyId=170;" value="&lt;div style='width: 21.0px;height:auto;word-break: break-word;line-height:1em;'&gt;&lt;div align=&quot;center&quot;&gt;&lt;span style=&quot;font-family: Arial; font-size: 12px; line-height: 14px;&quot;&gt;*&lt;/span&gt;&lt;/div&gt;&lt;/div&gt;" vertex="1"><mxGeometry as="geometry" height="14.0" width="24.0" x="418.0" y="352.2965087890625"/></mxCell><mxCell id="53" parent="7h4DgkoKuQko" style="text;html=1;nl2Br=0;html=1;nl2Br=0;verticalAlign=middle;align=center;spacingLeft=0.0;spacingRight=0;whiteSpace=wrap;gliffyId=173;" value="&lt;div style='width: 21.0px;height:auto;word-break: break-word;line-height:1em;'&gt;&lt;div align=&quot;center&quot;&gt;&lt;span style=&quot;font-family:Arial;font-size:12px; line-height: 0;&quot;&gt;&lt;span style=&quot;line-height: 14px;&quot;&gt;1&lt;/span&gt;&lt;/span&gt;&lt;/div&gt;&lt;/div&gt;" vertex="1"><mxGeometry as="geometry" height="14.0" width="24.0" x="323.0" y="261.0988464355469"/></mxCell><mxCell id="54" parent="7h4DgkoKuQko" style="text;html=1;nl2Br=0;html=1;nl2Br=0;verticalAlign=middle;align=center;spacingLeft=0.0;spacingRight=0;whiteSpace=wrap;gliffyId=174;" value="&lt;div style='width: 21.0px;height:auto;word-break: break-word;line-height:1em;'&gt;&lt;div align=&quot;center&quot;&gt;&lt;span style=&quot;font-family: Arial; font-size: 12px; line-height: 14px;&quot;&gt;*&lt;/span&gt;&lt;/div&gt;&lt;/div&gt;" vertex="1"><mxGeometry as="geometry" height="14.0" width="24.0" x="323.0" y="309.2965087890625"/></mxCell><mxCell id="55" parent="7h4DgkoKuQko" style="text;html=1;nl2Br=0;html=1;nl2Br=0;verticalAlign=middle;align=center;spacingLeft=0.0;spacingRight=0;whiteSpace=wrap;gliffyId=176;" value="&lt;div style='width: 21.0px;height:auto;word-break: break-word;line-height:1em;'&gt;&lt;div align=&quot;center&quot;&gt;&lt;span style=&quot;font-family: Arial; font-size: 12px; line-height: 14px;&quot;&gt;*&lt;/span&gt;&lt;/div&gt;&lt;/div&gt;" vertex="1"><mxGeometry as="geometry" height="14.0" width="24.0" x="273.0" y="220.0988311767578"/></mxCell><mxCell edge="1" id="56" parent="7h4DgkoKuQko" source="8" style="shape=filledEdge;strokeWidth=1;strokeColor=#666666;fillColor=none;startArrow=none;startFill=0;startSize=6;endArrow=open;endFill=0;endSize=6;rounded=1;html=1;nl2Br=0;gliffyId=177;edgeStyle=orthogonalEdgeStyle;" target="41"><mxGeometry as="geometry" height="191.0" relative="1" width="385.0"><Array as="points"><mxPoint x="118.0" y="225.62518310546875"/><mxPoint x="156.0" y="225.62518310546875"/><mxPoint x="156.0" y="415.4263916015625"/><mxPoint x="510.0" y="415.4263916015625"/></Array></mxGeometry></mxCell><mxCell id="57" parent="56" style="text;html=1;nl2Br=0;points=[];labelBackgroundColor=#FFFFFF;html=1;nl2Br=0;verticalAlign=middle;align=center;spacingLeft=0.0;spacingRight=0;gliffyId=178;" value="&lt;div style='width: 65.703094px;height:auto;word-break: break-word;line-height:1em;'&gt;&lt;div align=&quot;center&quot;&gt;&lt;span style=&quot;font-family: Arial; font-size: 12px; line-height: 14px;&quot;&gt;referred in&lt;/span&gt;&lt;/div&gt;&lt;/div&gt;" vertex="1"><mxGeometry as="geometry" relative="1"><mxPoint as="offset"/></mxGeometry></mxCell></root></mxGraphModel>